<svg xmlns="http://www.w3.org/2000/svg" viewBox="0 0 800 1000" width="800" height="1000">
  <defs>
    <linearGradient id="bg08" x1="0%" y1="0%" x2="100%" y2="100%">
      <stop offset="0%" style="stop-color:#0a0a0f"/>
      <stop offset="100%" style="stop-color:#12121e"/>
    </linearGradient>
    <linearGradient id="acc08" x1="0%" y1="0%" x2="100%" y2="100%">
      <stop offset="0%" style="stop-color:#6a3aff"/>
      <stop offset="100%" style="stop-color:#d946ef"/>
    </linearGradient>
    <radialGradient id="glow08" cx="50%" cy="50%" r="50%">
      <stop offset="0%" style="stop-color:#6a3aff;stop-opacity:0.4"/>
      <stop offset="100%" style="stop-color:#d946ef;stop-opacity:0"/>
    </radialGradient>
    <filter id="blur08">
      <feGaussianBlur stdDeviation="8"/>
    </filter>
  </defs>
  <rect width="800" height="1000" fill="url(#bg08)"/>
  <circle cx="400" cy="500" r="350" fill="url(#glow08)" filter="url(#blur08)"/>
  <!-- Abstract geometric shapes -->
  <polygon points="400,150 580,450 220,450" fill="none" stroke="url(#acc08)" stroke-width="1.5" opacity="0.6"/>
  <polygon points="400,850 580,550 220,550" fill="none" stroke="url(#acc08)" stroke-width="1.5" opacity="0.6"/>
  <circle cx="400" cy="500" r="180" fill="none" stroke="url(#acc08)" stroke-width="1" opacity="0.4"/>
  <circle cx="400" cy="500" r="120" fill="none" stroke="#d946ef" stroke-width="0.5" opacity="0.3"/>
  <!-- Cross lines -->
  <line x1="100" y1="500" x2="700" y2="500" stroke="#6a3aff" stroke-width="0.5" opacity="0.3"/>
  <line x1="400" y1="100" x2="400" y2="900" stroke="#6a3aff" stroke-width="0.5" opacity="0.3"/>
  <!-- Corner accents -->
  <rect x="60" y="60" width="60" height="2" fill="#6a3aff" opacity="0.8"/>
  <rect x="60" y="60" width="2" height="60" fill="#6a3aff" opacity="0.8"/>
  <rect x="680" y="60" width="60" height="2" fill="#d946ef" opacity="0.8"/>
  <rect x="738" y="60" width="2" height="60" fill="#d946ef" opacity="0.8"/>
  <rect x="60" y="938" width="60" height="2" fill="#6a3aff" opacity="0.8"/>
  <rect x="60" y="880" width="2" height="60" fill="#6a3aff" opacity="0.8"/>
  <rect x="680" y="938" width="60" height="2" fill="#d946ef" opacity="0.8"/>
  <rect x="738" y="880" width="2" height="60" fill="#d946ef" opacity="0.8"/>
  <!-- Small dots -->
  <circle cx="400" cy="500" r="4" fill="#d946ef" opacity="0.9"/>
  <circle cx="580" cy="450" r="3" fill="#6a3aff" opacity="0.7"/>
  <circle cx="220" cy="450" r="3" fill="#6a3aff" opacity="0.7"/>
  <circle cx="580" cy="550" r="3" fill="#d946ef" opacity="0.7"/>
  <circle cx="220" cy="550" r="3" fill="#d946ef" opacity="0.7"/>
  <!-- Title text -->
  <text x="400" y="930" font-family="system-ui, sans-serif" font-size="13" fill="#e8e8f0" opacity="0.5" text-anchor="middle" letter-spacing="4">NEON MERIDIAN — 2023</text>
  <text x="400" y="950" font-family="system-ui, sans-serif" font-size="10" fill="#8a8a9a" opacity="0.4" text-anchor="middle" letter-spacing="2">SCHUY / PLACEHOLDER</text>
</svg>